<svg width="31" height="31" viewBox="0 0 31 31" fill="none" xmlns="http://www.w3.org/2000/svg">
<path d="M21.6739 24.0406L26.4402 21.6549L9.34497 13.1208L4.57227 15.5001L21.6675 24.0406H21.6739ZM15.4998 27.1251L20.2854 24.7381L9.34497 19.2679L4.59164 21.6549L15.4998 27.1251ZM26.4273 15.5001L21.6533 17.8793L16.8948 15.5001L21.661 13.1208L26.4273 15.5001Z" fill="#00EBE5"/>
<path d="M10.7208 6.26846L15.5077 3.875L20.2869 6.26846L15.5 8.64771L10.7208 6.262V6.26846ZM9.32582 6.9595L4.55957 9.34521L15.5 14.809L20.2662 12.4297L9.32582 6.96596V6.9595ZM21.6548 11.7387L26.4339 9.34521L21.6677 6.97242L16.8821 9.35942L21.6548 11.7387Z" fill="#37EB77"/>
</svg>
