<svg width="32" height="32" viewBox="0 0 32 32" fill="none" xmlns="http://www.w3.org/2000/svg">
<path d="M8.95967 22.1867C9.29915 22.0877 9.66406 22.1276 9.97412 22.2976C10.2842 22.4676 10.514 22.7539 10.613 23.0933C10.712 23.4328 10.6721 23.7977 10.5021 24.1078C10.3321 24.4178 10.0458 24.6477 9.70634 24.7467C9.03967 24.9413 8.55967 25.1467 8.25167 25.3333C8.56901 25.524 9.07034 25.7373 9.76634 25.936C11.3063 26.376 13.5103 26.6667 15.9997 26.6667C18.489 26.6667 20.693 26.376 22.233 25.936C22.9303 25.7373 23.4303 25.524 23.7477 25.3333C23.441 25.1467 22.961 24.9413 22.2943 24.7467C21.9602 24.6433 21.6801 24.4128 21.5143 24.1048C21.3486 23.7968 21.3105 23.436 21.4082 23.1002C21.506 22.7644 21.7318 22.4804 22.037 22.3095C22.3422 22.1387 22.7023 22.0945 23.0397 22.1867C23.9303 22.4467 24.7463 22.78 25.373 23.208C25.953 23.6067 26.6663 24.3013 26.6663 25.3333C26.6663 26.3773 25.9357 27.0773 25.3463 27.476C24.709 27.9053 23.8757 28.24 22.965 28.5C21.1277 29.0267 18.6663 29.3333 15.9997 29.3333C13.333 29.3333 10.8717 29.0267 9.03434 28.5C8.12367 28.24 7.29034 27.9053 6.65301 27.476C6.06367 27.076 5.33301 26.3773 5.33301 25.3333C5.33301 24.3013 6.04634 23.6067 6.62634 23.208C7.25301 22.78 8.06901 22.4467 8.95967 22.1867ZM15.9997 10C13.9463 10 12.6637 12.2227 13.6903 14C14.1663 14.8253 15.0463 15.3333 15.9997 15.3333C18.053 15.3333 19.3357 13.1107 18.309 11.3333C18.075 10.928 17.7383 10.5913 17.333 10.3573C16.9276 10.1232 16.4678 10 15.9997 10Z" fill="black"/>
<path opacity="0.3" d="M16 2.66675C18.6522 2.66675 21.1957 3.72032 23.0711 5.59568C24.9464 7.47104 26 10.0146 26 12.6667C26 16.0907 24.1333 18.8747 22.2 20.8534C21.4315 21.632 20.6056 22.3518 19.7293 23.0067C18.9373 23.6014 17.1267 24.7161 17.1267 24.7161C16.7833 24.9113 16.395 25.0139 16 25.0139C15.605 25.0139 15.2167 24.9113 14.8733 24.7161C13.9747 24.195 13.1058 23.6244 12.2707 23.0067C11.3944 22.3518 10.5685 21.632 9.8 20.8534C7.86667 18.8747 6 16.0907 6 12.6667C6 10.0146 7.05357 7.47104 8.92893 5.59568C10.8043 3.72032 13.3478 2.66675 16 2.66675Z" fill="black"/>
</svg>
