<svg width="60" height="66" viewBox="0 0 60 66" fill="none" xmlns="http://www.w3.org/2000/svg">
<g filter="url(#filter0_d_174_501)">
<rect x="4" y="8" width="50" height="50" rx="14" fill="#F2F3F5" fill-opacity="0.2" shape-rendering="crispEdges"/>
</g>
<path d="M25.5803 25.08L24.1503 23.65C21.7503 25.48 20.1703 28.3 20.0303 31.5H22.0303C22.1015 30.2319 22.4576 28.9961 23.0722 27.8847C23.6868 26.7732 24.5441 25.8145 25.5803 25.08ZM37.9703 31.5H39.9703C39.8203 28.3 38.2403 25.48 35.8503 23.65L34.4303 25.08C35.462 25.8181 36.3155 26.7778 36.928 27.8887C37.5406 28.9996 37.8967 30.2335 37.9703 31.5ZM36.0003 32C36.0003 28.93 34.3603 26.36 31.5003 25.68V25C31.5003 24.17 30.8303 23.5 30.0003 23.5C29.1703 23.5 28.5003 24.17 28.5003 25V25.68C25.6303 26.36 24.0003 28.92 24.0003 32V37L22.0003 39V40H38.0003V39L36.0003 37V32ZM30.0003 43C30.1403 43 30.2703 42.99 30.4003 42.96C31.0503 42.82 31.5803 42.38 31.8403 41.78C31.9403 41.54 31.9903 41.28 31.9903 41H27.9903C28.0003 42.1 28.8903 43 30.0003 43Z" fill="#8DC63F"/>
<circle cx="50" cy="10" r="10" fill="#222222"/>
<path d="M46.2131 15V13.7273L50.1506 9.64773C50.571 9.20455 50.9176 8.81629 51.1903 8.48295C51.4669 8.14583 51.6733 7.82576 51.8097 7.52273C51.946 7.2197 52.0142 6.89773 52.0142 6.55682C52.0142 6.17045 51.9233 5.83712 51.7415 5.55682C51.5597 5.27273 51.3116 5.05492 50.9972 4.90341C50.6828 4.74811 50.3286 4.67045 49.9347 4.67045C49.518 4.67045 49.1544 4.75568 48.8438 4.92614C48.5331 5.09659 48.2945 5.33712 48.1278 5.64773C47.9612 5.95833 47.8778 6.32197 47.8778 6.73864H46.2017C46.2017 6.0303 46.3646 5.41098 46.6903 4.88068C47.0161 4.35038 47.4631 3.93939 48.0312 3.64773C48.5994 3.35227 49.2453 3.20455 49.9688 3.20455C50.6998 3.20455 51.3438 3.35038 51.9006 3.64205C52.4612 3.92992 52.8987 4.32386 53.2131 4.82386C53.5275 5.32008 53.6847 5.88068 53.6847 6.50568C53.6847 6.9375 53.6032 7.35985 53.4403 7.77273C53.2813 8.18561 53.0028 8.64583 52.6051 9.15341C52.2074 9.6572 51.6544 10.2689 50.946 10.9886L48.6335 13.4091V13.4943H53.8722V15H46.2131Z" fill="#EB001B"/>
<defs>
<filter id="filter0_d_174_501" x="0" y="8" width="58" height="58" filterUnits="userSpaceOnUse" color-interpolation-filters="sRGB">
<feFlood flood-opacity="0" result="BackgroundImageFix"/>
<feColorMatrix in="SourceAlpha" type="matrix" values="0 0 0 0 0 0 0 0 0 0 0 0 0 0 0 0 0 0 127 0" result="hardAlpha"/>
<feOffset dy="4"/>
<feGaussianBlur stdDeviation="2"/>
<feComposite in2="hardAlpha" operator="out"/>
<feColorMatrix type="matrix" values="0 0 0 0 0 0 0 0 0 0 0 0 0 0 0 0 0 0 0.25 0"/>
<feBlend mode="normal" in2="BackgroundImageFix" result="effect1_dropShadow_174_501"/>
<feBlend mode="normal" in="BackgroundImageFix" in2="effect1_dropShadow_174_501" result="BackgroundImageFix"/>
<feBlend mode="normal" in="SourceGraphic" in2="BackgroundImageFix" result="shape"/>
</filter>
</defs>
</svg>
